<?xml version="1.0" encoding="utf-8"?>
<!-- Generator: Adobe Illustrator 25.0.1, SVG Export Plug-In . SVG Version: 6.00 Build 0)  -->
<svg version="1.1" id="Layer_1" xmlns="http://www.w3.org/2000/svg" xmlns:xlink="http://www.w3.org/1999/xlink" x="0px" y="0px"
	 viewBox="0 0 184 25" style="enable-background:new 0 0 184 25;" xml:space="preserve">
<path d="M13.8,2.9c0-2-1.9-2.5-3.4-2.5v0.3c0.9,0,1.6,0.3,1.6,1c0,0.4-0.3,1-1.2,1c-0.7,0-2.2-0.4-3.3-0.8C6.2,1.4,5,1,4,1
	C2,1,0.6,2.5,0.6,4.2c0,1.5,1.1,2,1.5,2.2l0.1-0.2C2,6,1.7,5.8,1.7,5.2c0-0.4,0.4-1.1,1.4-1.1C4,4.1,5.2,4.5,6.8,5
	c1.4,0.4,2.9,0.7,3.7,0.8v3.1L9,10.2v0.1l1.5,1.3v4.3c-0.8,0.5-1.7,0.6-2.5,0.6c-1.5,0-2.8-0.4-3.9-1.6l4.1-2V6l-5,2.2
	C3.6,6.9,4.7,6,5.8,5.4L5.7,5.1c-3,0.8-5.7,3.6-5.7,7c0,4,3.3,7,7,7c4,0,6.6-3.2,6.6-6.5h-0.2c-0.6,1.3-1.5,2.5-2.6,3.1v-4.1
	l1.6-1.3v-0.1l-1.6-1.3V5.8C12.3,5.8,13.8,4.8,13.8,2.9z M5.1,13.9l-1.2,0.6c-0.7-0.9-1.1-2.1-1.1-3.8c0-0.7,0-1.5,0.2-2.1l2.1-0.9
	V13.9z M15.7,16.2l-1.3,1l0.2,0.2l0.6-0.5l2.2,2l3-2l-0.1-0.2l-0.8,0.5l-1-1V9.4l0.8-0.6l1.7,1.4v6.1c0,3.8-0.8,4.4-2.5,5v0.3
	c2.8,0.1,5.4-0.8,5.4-5.7V9.3l0.9-0.7l-0.2-0.2L23.8,9l-2.5-2.1L18.5,9V0.8h-0.2l-3.5,2.4v0.2c0.4,0.2,1,0.4,1,1.5
	C15.8,4.9,15.7,16.2,15.7,16.2z M34,15.1L31.5,17L29,15v-1.2l4.7-3.2v-0.1l-2.4-3.6l-5.2,2.8v6.6l-1,0.8l0.2,0.2l0.9-0.7l3.4,2.5
	l4.5-3.6C34.1,15.5,34,15.1,34,15.1z M29,13.4V8.5l0.2-0.1l2.2,3.5C31.4,11.9,29,13.4,29,13.4z M53.1,2c0-0.3-0.1-0.6-0.2-0.9h-0.2
	C52.4,1.9,52,2.3,51,2.3c-0.9,0-1.5-0.5-1.9-0.9l-2.9,3.3l0.2,0.2l1-0.9c0.6,0.5,1.1,0.9,2.5,1v8.3L44,3.2c-0.5-0.8-1.2-1.9-2.6-1.9
	c-1.6,0-3,1.4-2.8,3.6h0.3C39,4.3,39.3,3.6,40,3.6c0.5,0,1,0.5,1.3,1v3.3c-1.8,0-3,0.8-3,2.3c0,0.8,0.4,2,1.6,2.3v-0.2
	c-0.2-0.2-0.3-0.4-0.3-0.7c0-0.5,0.4-0.9,1.1-0.9h0.5v4.2c-2.1,0-3.8,1.2-3.8,3.2c0,1.9,1.6,2.8,3.4,2.7v-0.2
	c-1.1-0.1-1.6-0.6-1.6-1.3c0-0.9,0.6-1.3,1.4-1.3c0.8,0,1.5,0.5,2,1.1l2.9-3.2l-0.2-0.2l-0.7,0.8c-1.1-1-1.7-1.3-3-1.5V5l8,14h0.6V5
	C51.7,4.9,53.1,3.7,53.1,2z M60.4,15.1L57.9,17l-2.5-2v-1.2l4.7-3.2v-0.1l-2.4-3.6l-5.2,2.8v6.6l-1,0.8l0.2,0.2l0.9-0.7l3.4,2.5
	l4.5-3.6C60.5,15.5,60.4,15.1,60.4,15.1z M55.4,13.4V8.5l0.2-0.1l2.2,3.5C57.8,11.9,55.4,13.4,55.4,13.4z M76.7,8L76,8.5l-1.9-1.6
	l-2.2,2l0.9,0.9v7.5l-2.4-1.5V9.6l0.8-0.5l-2.3-2.2l-2.2,2l0.9,0.9V17l-0.3,0.2l-2.1-1.5v-6c0-1.4-0.7-1.8-1.5-2.3
	c-0.7-0.5-1.1-0.8-1.1-1.5c0-0.6,0.6-0.9,0.9-1.1V4.6c-0.8,0-2.9,0.8-2.9,2.7c0,1,0.5,1.4,1,1.9s1,0.9,1,1.8v5.8l-1.1,0.8l0.2,0.2
	l1-0.8l2.3,2l2.5-1.7l2.8,1.7l5.3-3.1V9.2l1.3-1L76.7,8L76.7,8z M95.3,2.5l-1,0.9l-2.2-2l-3.3,2.4V1.6h-0.3l0.1,16.2
	c-0.3,0-1.2-0.2-1.9-0.4L86.5,3.9c0-1-0.7-2.4-2.5-2.4s-3,1.4-3,2.8h0.3c0.1-0.6,0.4-1.1,1-1.1s1.1,0.4,1.1,1.7v3.9
	c-1.8,0.1-2.9,1.1-2.9,2.4c0,0.8,0.4,2,1.6,2V13c-0.4-0.2-0.5-0.5-0.5-0.7c0-0.6,0.5-0.8,1.3-0.8h0.4v6.2c-1.5,0.5-2.1,1.6-2.1,2.8
	c0,1.7,1.3,2.9,3.3,2.9c1.4,0,2.6-0.2,3.8-0.5c1-0.2,2.3-0.5,2.9-0.5c0.8,0,1.1,0.4,1.1,0.9c0,0.7-0.3,1-0.7,1.1v0.2
	c1.6-0.3,2.6-1.3,2.6-2.8s-1.5-2.4-3.1-2.4c-0.8,0-2.5,0.3-3.7,0.5c-1.4,0.3-2.8,0.5-3.2,0.5c-0.7,0-1.5-0.3-1.5-1.3
	c0-0.8,0.7-1.5,2.4-1.5c0.9,0,2,0.1,3.1,0.4c1.2,0.3,2.3,0.6,3.3,0.6c1.5,0,2.8-0.5,2.8-2.6V3.7l1.2-1L95.3,2.5L95.3,2.5z M91.2,8.6
	c-0.3,0.3-0.7,0.6-1.2,0.6s-1-0.3-1.2-0.6V4.2l1-0.7l1.4,1.3C91.2,4.8,91.2,8.6,91.2,8.6z M91.2,11.6c-0.2-0.2-0.7-0.5-1.2-0.5
	s-1,0.3-1.2,0.5V9C89,9.2,89.5,9.5,90,9.5s1-0.3,1.2-0.5V11.6z M91.2,16.3c0,0.8-0.5,1.6-1.6,1.6h-0.8V12c0.2-0.2,0.7-0.5,1.2-0.5
	s0.9,0.3,1.2,0.5C91.2,12,91.2,16.3,91.2,16.3z M104.9,9.2l-3.2-2.3l-4.9,2.8v6.5l-1,0.8l0.1,0.2l0.8-0.6l3.2,2.4l5-3
	C104.9,16,104.9,9.2,104.9,9.2z M99.5,15.5V8.3l2.5,1.8v7.1C102,17.2,99.5,15.5,99.5,15.5z M114.4,7.1h-0.2
	c-0.3,0.2-0.6,0.4-0.9,0.4c-0.4,0-0.9-0.2-1.1-0.5H112l-1.7,1.9L108.6,7l-3,2l0.1,0.2l0.8-0.5l1,1.1v6.3l-1.3,1l0.2,0.2l0.6-0.5
	l2.4,2l3.1-2.1l-0.1-0.2l-0.9,0.5l-1.2-1V9c0.5,0.5,1.1,1,1.8,1C113.5,10.1,114.3,8.7,114.4,7.1L114.4,7.1z M126.4,16.7L123,19
	l-4.6-7l3.3-5.1h0.2c0.4,0.4,1,0.8,1.7,0.8s1.2-0.4,1.5-0.8h0.2c-0.1,2-1.5,3.2-2.5,3.2s-1.5-0.5-2.1-0.8l-0.3,0.5l5,7.4l1-0.6V16.7
	z M115.4,16.2l-1.3,1l0.2,0.2l0.6-0.5l2.2,2l3-2l-0.2-0.2l-0.8,0.5l-1-1V0.8H118l-3.6,2.4v0.2c0.4,0.2,1,0.3,1,1.5
	C115.4,4.9,115.4,16.2,115.4,16.2z M143,2.9c0-2-1.9-2.5-3.4-2.5v0.3c0.9,0,1.6,0.3,1.6,1c0,0.4-0.3,1-1.2,1c-0.7,0-2.2-0.4-3.3-0.8
	c-1.3-0.4-2.5-0.8-3.5-0.8c-2,0-3.4,1.5-3.4,3.2c0,1.5,1.1,2,1.5,2.2l0.1-0.2c-0.3-0.2-0.6-0.4-0.6-1c0-0.4,0.4-1.1,1.4-1.1
	c0.9,0,2.1,0.4,3.7,0.9c1.4,0.4,2.9,0.7,3.7,0.8V9l-1.5,1.3v0.1l1.5,1.3V16c-0.8,0.5-1.7,0.6-2.5,0.6c-1.5,0-2.8-0.4-3.9-1.6l4.1-2
	V6l-5,2.2c0.5-1.3,1.6-2.2,2.6-2.9l-0.1-0.2c-3,0.8-5.7,3.5-5.7,6.9c0,4,3.3,7,7,7c4,0,6.6-3.2,6.6-6.5h-0.2
	c-0.6,1.3-1.5,2.5-2.6,3.1v-4.1l1.6-1.3v-0.1L140,8.8v-3C141.5,5.8,143,4.8,143,2.9z M134.3,13.9l-1.2,0.6c-0.7-0.9-1.1-2.1-1.1-3.8
	c0-0.7,0.1-1.5,0.3-2.1l2.1-0.9L134.3,13.9z M146.5,1.9h-0.1l-2,1.7v0.1l1.7,1.9h0.2l2-1.7V3.8L146.5,1.9L146.5,1.9z M149.5,16.7
	l-0.8,0.5l-1-1V9.3l1-0.7l-0.2-0.2L147.8,9L146,6.9l-2.9,2l0.2,0.3l0.7-0.5l0.9,1.1v6.5l-1.3,1l0.1,0.2l0.7-0.5l2.2,2l3-2
	L149.5,16.7L149.5,16.7z M166.2,16.6l-0.7,0.5l-1.1-1V9.3l1-0.8l-0.2-0.2L164.4,9l-2.3-2.1l-3,2.1l-2.3-2.1L154,9l-1.8-2.1l-2.9,2
	l0.1,0.3l0.7-0.5l1,1.1v6.5l-0.8,0.8l2.3,1.9l2.2-2l-0.9-0.9V9.3l0.9-0.6l1.5,1.4v6l-0.8,0.8l2.3,1.9l2.2-2l-0.9-0.9V9.3l0.8-0.5
	l1.6,1.4v6l-0.7,0.7l2.3,2.1l3.1-2.1L166.2,16.6L166.2,16.6z M174.9,15.1l-2.5,1.9l-2.5-2v-1.2l4.7-3.2v-0.1l-2.4-3.6L167,9.7v6.8
	l3.5,2.5l4.5-3.6C175,15.4,174.9,15.1,174.9,15.1z M169.9,13.4V8.5l0.2-0.1l2.2,3.5C172.3,11.9,169.9,13.4,169.9,13.4z M184,12.5
	l-1.9-1.5c1.3-1.1,1.8-2.6,1.8-3.6V6.8h-0.2c-0.2,0.5-0.6,1-1.4,1c-0.8,0-1.3-0.4-1.8-1L176,9.3v3.6l1.7,1.3c-1.7,1.5-2,2.5-2,3.3
	c0,1,0.5,1.7,1.3,2l0.1-0.2c-0.2-0.2-0.4-0.3-0.4-0.8c0-0.3,0.4-0.8,1.2-0.8c1,0,1.6,0.7,1.9,1l4.3-2.6v-3.6
	C184.1,12.5,184,12.5,184,12.5z M182.9,9.5c-0.7,1.2-2.2,2.4-3.1,3l-1.1-0.9V8.1c0.4,1,1.5,1.8,2.6,1.8C182,9.9,182.4,9.8,182.9,9.5
	z M181.2,17.5c-0.5-1.1-1.7-1.9-2.9-1.9c-0.3,0-1.1,0-1.9,0.5c0.5-0.8,1.8-2.2,3.5-3.2l1.2,1L181.2,17.5L181.2,17.5z"/>
</svg>
